<svg width="15" height="15" viewBox="0 0 15 15" fill="none" xmlns="http://www.w3.org/2000/svg">
<g clip-path="url(#clip0_10_27)">
<path d="M14.1667 12.1233C13.9929 11.7221 13.7933 11.2867 13.3333 11.2867H12.9167C13.3767 11.2867 13.75 10.9121 13.75 10.45V3.33667C13.75 2.87458 13.3767 2.5 12.9167 2.5H2.08333C1.62333 2.5 1.25 2.87458 1.25 3.33667V10.45C1.25 10.9121 1.62333 11.2867 2.08333 11.2867H1.66667C1.20667 11.2867 0.972083 11.705 0.833333 12.1233L0 14.1629C0 14.6254 0.373333 15 0.833333 15H14.1667C14.6267 15 15 14.6254 15 14.1633L14.1667 12.1233Z" fill="#CCD6DD"/>
<path d="M0.00332642 14.1979L0.00582642 14.2217L0.0766597 14.5102C0.208326 14.7988 0.49666 15.0006 0.833326 15.0006H14.1667C14.615 15.0006 14.9779 14.6441 14.9967 14.1979H0.00332642Z" fill="#9AAAB4"/>
<path d="M12.9167 10.0312C12.9167 10.2625 12.7304 10.4496 12.5 10.4496H2.50001C2.27001 10.4496 2.08334 10.2625 2.08334 10.0312V3.75542C2.08334 3.52417 2.27001 3.33708 2.50001 3.33708H12.5C12.7304 3.33708 12.9167 3.52458 12.9167 3.75542V10.0312Z" fill="#5DADEC"/>
<path d="M13.7108 12.9342L13.3942 12.0279C13.2946 11.8363 13.1296 11.6792 12.8992 11.6792H2.12918C1.89918 11.6792 1.75168 11.8492 1.64751 12.1108L1.36085 12.9346C1.2696 13.1829 1.54751 13.3529 1.77751 13.3529H4.93501C4.93501 13.3529 5.32543 13.3333 5.3946 13.0996C5.4746 12.8296 5.56751 12.4229 5.58751 12.3513C5.61835 12.2413 5.74918 12.13 5.94418 12.13H9.51835C9.72668 12.13 9.82918 12.2354 9.85627 12.3658C9.87377 12.4508 9.98627 12.8413 10.0388 13.1083C10.085 13.3463 10.5475 13.3525 10.5475 13.3525H13.295C13.5246 13.3525 13.8021 13.1563 13.7108 12.9342Z" fill="#AEBBC1"/>
<path d="M9.32292 13.798H6.08084C5.92459 13.798 5.85667 13.6549 5.87917 13.5165C5.90167 13.3785 6.02876 12.7689 6.03876 12.698C6.04834 12.6267 6.15292 12.5417 6.25709 12.5417H9.18001C9.30376 12.5417 9.38417 12.6096 9.40917 12.7456C9.43376 12.8819 9.53501 13.4298 9.54292 13.5549C9.55084 13.6804 9.47251 13.798 9.32292 13.798Z" fill="#9AAAB4"/>
</g>
<defs>
<clipPath id="clip0_10_27">
<rect width="15" height="15" fill="white"/>
</clipPath>
</defs>
</svg>
