<svg width="15" height="15" viewBox="0 0 15 15" fill="none" xmlns="http://www.w3.org/2000/svg">
<g clip-path="url(#clip0_10_4)">
<path d="M6.07083 11.5304C7.24333 10.8254 8.83542 9.94417 10.1954 8.58417C13.1246 5.65542 15.4992 1.51334 14.9096 0.923752C14.3204 0.334586 10.1783 2.70917 7.24917 5.63792C5.88875 6.99834 5.00792 8.59 4.30292 9.7625L6.07083 11.5304Z" fill="#3B88C3"/>
<path d="M0.178345 14.4767C0.178345 14.4767 3.12459 15.0658 5.1871 13.0033C6.07085 12.1196 6.07084 10.9412 6.07084 10.9412L4.89209 9.7625C4.89209 9.7625 3.41918 10.0575 2.82959 10.6467C2.24043 11.2358 1.78043 12.41 1.62626 12.9792C1.34459 14.0217 0.178345 14.4767 0.178345 14.4767Z" fill="#C1694F"/>
<path d="M7.45084 10.5533L5.2975 8.40001C5.13459 8.23709 4.89834 8.26417 4.76834 8.46042L4.30042 9.17084C4.17084 9.36709 4.1875 9.64667 4.33667 9.79626L6.05417 11.5142C6.20334 11.6633 6.48334 11.6796 6.67959 11.5504L7.39 11.0821C7.58667 10.9525 7.61334 10.7163 7.45084 10.5533Z" fill="#CCD6DD"/>
<path d="M4.67876 13.4417C4.18251 13.7621 3.91793 13.495 4.00834 13.1879C4.10043 12.875 3.95835 12.5012 3.49293 12.5987C3.02751 12.6958 2.71959 12.4512 2.86668 11.8625C3.01168 11.2821 2.41459 11.0862 2.13584 11.6812C1.89334 12.1646 1.71209 12.6642 1.62668 12.9792C1.34459 14.0221 0.178345 14.4771 0.178345 14.4771C0.178345 14.4771 2.67334 14.9704 4.67876 13.4417Z" fill="#A0041E"/>
</g>
<defs>
<clipPath id="clip0_10_4">
<rect width="15" height="15" fill="white"/>
</clipPath>
</defs>
</svg>
